<svg viewBox="120 120 3039.999999999999 1999.9999999999995" xmlns="http://www.w3.org/2000/svg" xmlns:blush="http://design.blush" overflow="visible" xmlns:xlink="http://www.w3.org/1999/xlink" width="3039.999999999999px" height="1999.9999999999995px"><g id="Master/Scenes/Social Media" stroke="none" stroke-width="1" fill="none" fill-rule="evenodd" blush:viewBox="112 136 3023.999999999999 1936" blush:i="0"><g id="Background" transform="translate(0.000000, -177.000000)" blush:i="0.0"><g id="Flying Objects" opacity=".5" transform="translate(2014.000000, 215.000000) scale(1 1)" blush:width="700" blush:height="800" blush:component="Flying Objects" blush:i="0.0.0" blush:value="Balloon Red" blush:viewBox="246.1187214611872 136 211.75799086757985 584.0000000000001"><g id="Flying Objects/Balloon Red" stroke="none" stroke-width="1" fill="none" fill-rule="evenodd" blush:viewBox="246.1187214611872 136 211.75799086757985 584.0000000000001" blush:i="0.0.0.0"><g id="Group" transform="translate(246.000000, 137.000000)" blush:i="0.0.0.0.0"><path d="M149.733462,285.734603 C157.805348,279.54733 124.836431,253.662324 120.161114,258.629066 C117.939588,260.988931 139.248923,293.771476 149.733462,285.734603 M86.1666056,282.995283 C95.1123205,293.59321 106.764338,273.462252 111.037176,264.277843 C122.832311,238.928805 77.2415824,272.420712 86.1666056,282.995283 M100.300795,579.794123 C92.0143674,575.010056 138.47669,513.857006 113.251575,477.770702 C110.299901,473.549007 118.940081,466.496386 119.230848,457.799105 C122.459484,441.684398 125.355937,423.424182 117.251562,408.33457 C98.7960546,418.451213 96.7555088,377.803537 116.173912,389.75894 C131.761439,356.831108 126.97198,307.088419 116.68901,272.649372 C97.7270329,309.677586 58.363049,290.166113 92.3663939,257.726132 C103.469034,247.691809 120.600991,248.016755 133.151426,255.333665 C154.493896,267.775187 162.517167,288.762347 155.549975,294.360078 C151.134976,297.906753 138.799381,299.036697 125.022892,277.928224 C130.927102,301.145811 132.951254,326.066115 132.506044,354.691665 C132.278262,369.406074 126.249808,390.345575 123.180793,395.783 C131.333485,416.680909 132.47412,453.698724 122.446541,472.666022 C149.246285,504.684006 108.587223,584.579057 100.300795,579.794123" id="Fill-1" fill="#090E2B" blush:i="0.0.0.0.0.0"/><path d="M208.173357,132.995103 C205.463986,196.578147 148.224495,284.469563 73.1038794,237.934573 C24.2441433,207.668031 -3.509826,160.19487 0.357108028,106.142496 C11.5397013,-50.1285311 223.8484,-27.6724767 208.173357,132.995103" id="Path" fill="#FF0057" blush:i="0.0.0.0.0.1"/><path d="M38.113339,128.891654 C42.1480359,113.398009 14.6564956,114.349394 17.9793987,128.621374 C18.3868228,141.021815 37.9599558,143.299374 38.113339,128.891654" id="Path" fill="#FFF" blush:i="0.0.0.0.0.2"/><path d="M122.516035,121.066751 C123.097213,103.445703 108.90088,102.103914 101.279652,108.245874 C93.6596235,114.387834 92.6135022,128.013544 106.566579,130.866499 C117.298609,133.05997 122.220053,129.993194 122.516035,121.066751" id="Path" fill="#FFF" blush:i="0.0.0.0.0.3"/><path d="M182.391799,126.08795 C198.758265,129.058627 205.424442,100.655213 186.887844,100.801765 C170.959958,101.26064 163.25485,123.261423 182.391799,126.08795" id="Path" fill="#FFF" blush:i="0.0.0.0.0.4"/><path d="M63.3640468,190.825389 C90.2863916,194.985297 71.7617764,151.393355 55.2754801,164.649082 C47.9490361,173.159896 50.3744078,190.537091 63.3640468,190.825389" id="Path" fill="#FFF" blush:i="0.0.0.0.0.5"/><path d="M135.750103,208.918174 C148.077079,215.362847 164.275043,204.550403 167.03213,193.218717 C169.123779,184.621999 164.185638,165.408212 145.472765,174.065297 C127.282055,182.480815 122.382346,196.421621 135.750103,208.918174 Z" id="Path" fill="#FFF" blush:i="0.0.0.0.0.6"/><path d="M40.1252951,61.6784509 C36.0198981,85.6264503 76.1559652,93.026113 76.6089249,68.5195352 C78.620881,38.3611046 45.0778945,31.228118 40.1252951,61.6784509" id="Path" fill="#FFF" blush:i="0.0.0.0.0.7"/><path d="M129.137874,44.035781 C126.699321,78.140298 170.660382,77.4387715 171.871869,50.7219048 C173.68251,28.3571449 132.615359,16.8984789 129.137874,44.035781" id="Path" fill="#FFF" blush:i="0.0.0.0.0.8"/></g></g></g><g id="Phone" transform="translate(1218.000000, 483.000000) scale(1 1)" blush:width="963" blush:height="1749" blush:component="Phone" blush:i="0.0.1" blush:value="Screen 1" blush:viewBox="-4.377272727272839 0 971.7545454545453 1748.9999999999995"><g id="Phone/Screen 1" stroke="none" stroke-width="1" fill="none" fill-rule="evenodd" blush:viewBox="-4.377272727272839 0 971.7545454545453 1748.9999999999995" blush:i="0.0.1.0"><g id="Group-19" blush:i="0.0.1.0.0"><path d="M855.432,1748.85552 L106.6968,1748.85552 C47.7696,1748.85552 0,1701.08592 0,1642.15872 L0,106.69632 C0,47.76912 47.7696,-0.000479999997 106.6968,-0.000479999997 L855.432,-0.000479999997 C914.3592,-0.000479999997 962.1288,47.76912 962.1288,106.69632 L962.1288,1642.15872 C962.1288,1701.08592 914.3592,1748.85552 855.432,1748.85552 Z" id="Stroke-1" fill="#090E2B" blush:i="0.0.1.0.0.0"/><path d="M827.33976,71.99976 L714.03336,71.99976 L714.03336,101.26056 C714.03336,141.15336 681.69336,173.49576 641.79816,173.49576 L320.33016,173.49576 C280.43496,173.49576 248.09256,141.15336 248.09256,101.25816 L248.09256,71.99976 L134.79096,71.99976 C100.11096,71.99976 71.99736,100.11096 71.99736,134.79096 L71.99736,1614.06456 C71.99736,1648.74456 100.11096,1676.85576 134.79096,1676.85576 L827.33736,1676.85576 C862.01736,1676.85576 890.12856,1648.74456 890.12856,1614.06456 L890.12856,134.79096 C890.12856,100.11096 862.01736,71.99976 827.33976,71.99976 Z" id="Stroke-3" fill="#FFF" blush:i="0.0.1.0.0.1"/><path d="M280.88976,1317.76248 L190.76016,1317.76248 C169.25616,1317.76248 151.82496,1300.33128 151.82496,1278.82728 L151.82496,1188.69768 C151.82496,1167.19368 169.25616,1149.76248 190.76016,1149.76248 L280.88976,1149.76248 C302.39376,1149.76248 319.82496,1167.19368 319.82496,1188.69768 L319.82496,1278.82728 C319.82496,1300.33128 302.39376,1317.76248 280.88976,1317.76248 Z" id="Stroke-13" stroke="#C7D2F2" stroke-width="5" stroke-linecap="round" stroke-linejoin="round" stroke-dasharray="10,12" blush:i="0.0.1.0.0.2"/></g><path d="M281.0648,1318 L190.9352,1318 C169.4312,1318 152,1300.5688 152,1279.0648 L152,1188.9352 C152,1167.4312 169.4312,1150 190.9352,1150 L281.0648,1150 C302.5688,1150 320,1167.4312 320,1188.9352 L320,1279.0648 C320,1300.5688 302.5688,1318 281.0648,1318 Z" id="Stroke-13-Copy-2" fill="#A191FF" blush:i="0.0.1.0.1"/><path d="M781.741436,802.6768 L191.258564,802.6768 C169.575969,802.6768 152,785.2456 152,763.7416 L152,444.9352 C152,423.4312 169.575969,406 191.258564,406 L781.741436,406 C803.424031,406 821,423.4312 821,444.9352 L821,763.7416 C821,785.2456 803.424031,802.6768 781.741436,802.6768 Z" id="Stroke-5-Copy" fill="#FFB201" blush:i="0.0.1.0.2"/><path d="M281.0648,1069 L190.9352,1069 C169.4312,1069 152,1051.5664 152,1030.0648 L152,939.9352 C152,918.4312 169.4312,901 190.9352,901 L281.0648,901 C302.5688,901 320,918.4312 320,939.9352 L320,1030.0648 C320,1051.5664 302.5688,1069 281.0648,1069 Z" id="Stroke-7-Copy" fill="#FF0057" blush:i="0.0.1.0.3"/><rect id="Rectangle" fill="#E7EAFD" x="378" y="901" width="443" height="18" rx="9" blush:i="0.0.1.0.4"/><rect id="Rectangle-Copy-3" fill="#E7EAFD" x="378" y="1162" width="443" height="18" rx="9" blush:i="0.0.1.0.5"/><rect id="Rectangle-Copy" fill="#E7EAFD" x="378" y="965" width="332" height="18" rx="9" blush:i="0.0.1.0.6"/><rect id="Rectangle-Copy-4" fill="#E7EAFD" x="378" y="1226" width="332" height="18" rx="9" blush:i="0.0.1.0.7"/><rect id="Rectangle-Copy-2" fill="#E7EAFD" x="378" y="1029" width="257" height="18" rx="9" blush:i="0.0.1.0.8"/><rect id="Rectangle-Copy-5" fill="#E7EAFD" x="378" y="1290" width="257" height="18" rx="9" blush:i="0.0.1.0.9"/></g></g><path d="M2776.5,2228 C2778.433,2228 2780,2229.567 2780,2231.5 C2780,2233.36856 2778.53572,2234.89513 2776.69204,2234.99482 L2776.5,2235 L130.5,2235 C128.567003,2235 127,2233.433 127,2231.5 C127,2229.63144 128.464278,2228.10487 130.307965,2228.00518 L130.5,2228 L2776.5,2228 Z" id="Floor" fill="#090E2B" fill-rule="nonzero" blush:i="0.0.2"/><g id="Outdoor Plants" transform="translate(2401.000000, 1267.000000) scale(1 1)" blush:width="751" blush:height="965" blush:component="Outdoor Plants" blush:i="0.0.3" blush:value="Trees" blush:viewBox="49.712724935732695 24.125 680.5334190231363 945.6999999999998"><g id="Outdoor Plants/Trees" stroke="none" stroke-width="1" fill="none" fill-rule="evenodd" blush:viewBox="49.712724935732695 24.125 680.5334190231363 945.6999999999998" blush:i="0.0.3.0"><g id="Group" transform="translate(50.000000, 27.000000)" blush:i="0.0.3.0.0"><path d="M246.327941,707.554023 C202.725234,648.694159 266.995654,634.469818 237.177083,579.041474 C201.045875,511.877502 252.889207,525.364984 230.558991,457.77841 C212.889507,404.298257 182.034281,401.995081 179.286724,325.770544 C176.543382,249.546006 39.2582753,245.25238 68.925141,351.777408 C98.5962208,458.302435 22.2672523,432.071593 35.6974086,509.466735 C53.6492336,612.915227 -18.38566,571.479753 4.55980649,651.097777 C24.0792556,718.828035 -59.1552187,832.362634 138.705486,859 C314.797719,849.998599 289.934862,766.418112 246.327941,707.554023 Z" id="Fill-1" fill="#009BA0" blush:i="0.0.3.0.0.0"/><path d="M95,585 C95,585 102.269883,617.395249 137,651" id="Stroke-5" stroke="#090E2B" stroke-width="9.107" stroke-linecap="round" stroke-linejoin="round" blush:i="0.0.3.0.0.1"/><path d="M63,713 C63,713 75.8067111,744.89889 137,778" id="Stroke-7" stroke="#090E2B" stroke-width="9.107" stroke-linecap="round" stroke-linejoin="round" blush:i="0.0.3.0.0.2"/><path d="M199,637 C199,637 190.990083,687.972701 137,725" id="Stroke-9" stroke="#090E2B" stroke-width="9.107" stroke-linecap="round" stroke-linejoin="round" blush:i="0.0.3.0.0.3"/><path d="M608.603445,473.480495 C570.590587,379.998182 626.937388,314.013535 549.627883,136.939688 C472.318378,-40.1341592 367.026875,-40.7590157 351.056381,107.78507 C335.090104,256.329155 210.936686,350.641456 268.195115,484.721371 C324.468099,616.493705 207.88992,647.351714 245.711222,745.061987 C293.787219,869.262883 452.912681,874 452.912681,874 C626.199908,874 654.358401,816.786582 667.882995,767.076651 C703.354583,636.700085 625.009296,513.826235 608.603445,473.480495 Z" id="Fill-11" fill="#FFB201" blush:i="0.0.3.0.0.4"/><path d="M535,314 C535,314 520.978644,385.165722 454,459" id="Stroke-15" stroke="#090E2B" stroke-width="9.107" stroke-linecap="round" stroke-linejoin="round" blush:i="0.0.3.0.0.5"/><path d="M560,611 C560,611 541.481013,682.167801 453,756" id="Stroke-17" stroke="#090E2B" stroke-width="9.107" stroke-linecap="round" stroke-linejoin="round" blush:i="0.0.3.0.0.6"/><path d="M365,465 C365,465 376.498556,549.574282 454,611" id="Stroke-19" stroke="#090E2B" stroke-width="9.107" stroke-linecap="round" stroke-linejoin="round" blush:i="0.0.3.0.0.7"/><line x1="136" y1="938" x2="136" y2="511" id="Stroke-3" stroke="#090E2B" stroke-width="9.107" stroke-linecap="round" stroke-linejoin="round" blush:i="0.0.3.0.0.8"/><line x1="453" y1="932" x2="453" y2="226" id="Stroke-13" stroke="#090E2B" stroke-width="9.107" stroke-linecap="round" stroke-linejoin="round" blush:i="0.0.3.0.0.9"/></g></g></g><g id="Outdoor Plants" transform="translate(2106.000000, 1267.000000) scale(1 1)" blush:width="751" blush:height="965" blush:component="Outdoor Plants" blush:i="0.0.4" blush:value="Bush" blush:viewBox="97.9775064267352 685.1499999999999 559.87146529563 279.84999999999997"><g id="Outdoor Plants/Bush" stroke="none" stroke-width="1" fill="none" fill-rule="evenodd" blush:viewBox="97.9775064267352 685.1499999999999 559.87146529563 279.84999999999997" blush:i="0.0.4.0"><g id="Group-16-Copy" transform="translate(98.000000, 689.000000)" blush:i="0.0.4.0.0"><path d="M2.39500229,275.969448 C4.95578,275.610539 7.81571397,276.244612 10.3764917,275.885703 L558,275.885703 C557.748709,255.057012 545.866222,224.872758 527.67752,214.67974 C509.500785,204.498686 485.903338,204.821704 468.013793,215.46934 C476.079046,172.735231 481.918576,128.086941 470.155752,86.2022508 C458.41686,44.3175605 424.971188,5.75876099 381.773022,0.590470148 C341.267263,-4.24283888 301.934196,21.2038153 278.611973,54.6661058 C255.28975,88.1283962 244.831246,128.637268 234.815494,168.165122 C235.952288,149.465959 226.678444,130.479668 211.253946,119.855959 C195.817483,109.23225 174.768847,107.365923 157.704973,115.094432 C138.654702,123.720214 125.982442,142.814177 120.107013,162.889159 C114.24355,182.976104 114.255516,204.223522 114.315347,225.135958 C102.109771,197.476031 66.8212974,182.581304 38.4971814,193.133231 C10.1610992,203.697122 -6.48395591,247.077267 2.39500229,275.969448" id="Fill-1" fill="#F67A49" blush:i="0.0.4.0.0.0"/><path d="M118.397008,275.974803 C119.891241,275.760692 121.552828,276.153228 123.047061,275.927223 L442,275.927223 C441.856554,263.85377 434.923314,246.356186 424.344146,240.456253 C413.753025,234.556319 400.018038,234.734745 389.59427,240.920159 C394.292138,216.142818 397.687034,190.247344 390.849426,165.969594 C383.999863,141.691845 364.515068,119.341089 339.352189,116.343542 C315.76722,113.536316 292.863621,128.286149 279.27208,147.686938 C265.692493,167.087727 259.607977,190.556615 253.762539,213.478332 C254.420001,202.641962 249.02881,191.639062 240.039506,185.489334 C231.050202,179.32771 218.785539,178.233367 208.85188,182.717792 C197.758697,187.725599 190.37121,198.787974 186.952406,210.42131 C183.545555,222.066541 183.545555,234.389789 183.581417,246.498926 C176.480823,230.476325 155.92018,221.840536 139.423851,227.966474 C122.915568,234.080518 113.220986,259.226605 118.397008,275.974803" id="Fill-4" fill="#FFB201" blush:i="0.0.4.0.0.1"/></g></g></g><g id="Flying Objects" opacity=".5" transform="translate(905.000000, 400.000000) scale(-1, 1) translate(-905.000000, -400.000000) translate(555.000000, 0.000000) scale(1 1)" blush:width="700" blush:height="800" blush:component="Flying Objects" blush:i="0.0.5" blush:value="Cloud 1" blush:viewBox="158.21917808219177 320 335.61643835616434 160.00000000000014"><g id="Flying Objects/Cloud 1" stroke="none" stroke-width="1" fill="none" fill-rule="evenodd" blush:viewBox="158.21917808219177 320 335.61643835616434 160.00000000000014" blush:i="0.0.5.0"><path d="M479.95575,473.895048 C489.613069,459.137123 499.099888,436.733126 487.997876,423.547909 C481.436886,415.755283 470.330969,416.37302 462.370839,421.934228 C454.409408,427.495437 448.858402,436.870226 443.55859,445.96136 C452.064059,424.955151 460.742631,403.137375 461.346539,379.753193 C461.950447,356.369012 452.155166,330.873179 433.86613,323.327963 C414.905507,315.50382 394.716245,328.774134 378.352165,342.761464 C343.415317,372.620853 311.811676,408.189581 284.665759,448.195929 C286.38117,435.63948 288.09658,422.759979 286.097437,410.263412 C284.098294,397.765269 277.573747,385.527143 267.572825,381.604829 C257.656503,377.714031 246.935838,382.62441 237.627328,388.303808 C205.588977,407.842892 177.856072,437.617184 158,473.792617 C160.945352,473.792617 156.578734,478.669903 159.524086,478.669903 L479.95575,473.895048 Z" id="cloud" fill="#F0F1FF" transform="translate(325.500000, 399.834951) scale(-1, 1) translate(-325.500000, -399.834951)" blush:i="0.0.5.0.0"/></g></g></g><g transform="translate(1121.000000, 1312.000000) scale(-1, 1) translate(-1121.000000, -1312.000000) translate(566.000000, 562.000000) scale(1 1)" blush:has-customizable-colors="true" blush:width="1110" blush:height="1500" id="Master/Character/Standing" blush:component="Master/Character/Standing" blush:i="0.1" blush:value="Standing" blush:viewBox="322.5 75 607.5 1424.9999999999995"><g id="Master/Character/Standing" stroke="none" stroke-width="1" fill="none" fill-rule="evenodd" blush:has-customizable-colors="true" blush:viewBox="322.5 75 607.5 1424.9999999999995" blush:i="0.1.0"><g id="Lower Body/Standing" transform="translate(-64.000000, 629.000000) scale(1 1)" blush:width="1110" blush:height="871" blush:component="Lower Body/Standing" blush:i="0.1.0.0" blush:value="Jump 4" blush:viewBox="338.54999999999995 -3.3329081632653015 482.8499999999998 894.3303571428569"><g id="Lower Body/Standing/Jump 4" stroke="none" stroke-width="1" fill="none" fill-rule="evenodd" blush:viewBox="338.54999999999995 -3.3329081632653015 482.8499999999998 894.3303571428569" blush:i="0.1.0.0.0"><g id="leg-2" transform="translate(435.000000, 640.000000)" blush:i="0.1.0.0.0.0"><path d="M69.7065805,2.62900812e-13 C69.7065805,2.62900812e-13 59.8429805,49.9337 56.8989805,63.4707 C50.7537005,82.0674541 53.4873294,106.935257 64.0823294,109.877257 C74.6763294,112.821257 92.0109805,104.9717 92.0109805,104.9717 L127.295581,18.458 L69.7065805,2.62900812e-13 Z" id="Fill-1" fill="#09b9c6" blush:color="Skin-500" blush:i="0.1.0.0.0.0.0"/><g id="Shoe-2" transform="translate(0.000000, 63.030484)" blush:i="0.1.0.0.0.0.1"><path d="M56.8989805,0.440216332 C56.8989805,0.440216332 27.6399805,-3.14978367 15.3919805,10.1742163 C6.73498053,19.5922163 8.65798053,44.6782163 11.9969805,51.9122163 C15.3349805,59.1442163 18.0229805,65.6842163 14.6849805,76.8122163 C11.3459805,87.9402163 -2.06601947,108.405216 2.94198053,135.669216 C7.94898053,162.932216 21.9799805,181.783216 30.8819805,184.008216 C43.1239805,178.444216 92.0109805,41.9412163 92.0109805,41.9412163 C92.0109805,41.9412163 65.8369805,42.8102163 58.8149805,24.2092163 C53.9419805,11.2952163 56.8989805,0.440216332 56.8989805,0.440216332" id="Fill-3" fill="#090E2B" blush:i="0.1.0.0.0.0.1.0"/><path d="M73.7876805,83.9235163 C68.2826805,84.2755163 60.9096805,77.8875163 58.4436805,74.0365163 C57.0876805,71.9175163 56.9446805,69.8545163 59.2776805,71.5825163 C59.4036805,71.6765163 69.3396805,84.0265163 77.5346805,79.5175163 C78.1916805,79.1565163 79.0166805,79.3955163 79.3786805,80.0525163 C80.2066805,82.7955163 75.4136805,83.7955163 73.7876805,83.9235163" id="Fill-13" fill="#FFB201" blush:i="0.1.0.0.0.0.1.1"/><path d="M67.0561805,98.4089163 C61.6181805,98.0449163 55.2521805,93.7849163 51.9871805,90.2579163 C50.0271805,88.1409163 50.4751805,85.0329163 52.8191805,87.2969163 C52.9211805,87.3959163 62.5981805,97.4629163 70.4891805,95.8379163 C71.2261805,95.6849163 71.9421805,96.1579163 72.0931805,96.8909163 C72.3801805,98.7699163 68.7541805,98.5229163 67.0561805,98.4089163" id="Fill-15" fill="#FFB201" blush:i="0.1.0.0.0.0.1.2"/><path d="M18.1880805,167.131616 C13.6080805,160.187616 8.55308053,145.445616 7.46908053,128.735616 C6.57708053,114.981616 19.7640805,82.3026163 21.5840805,67.7816163 C22.7650805,58.3596163 21.1930805,50.9576163 20.8010805,36.8716163 C20.4890805,25.6316163 21.6710805,10.6636163 22.1620805,5.07061633 C18.4590805,6.63761633 12.5900805,8.11761633 10.2480805,10.9706163 C4.09208053,18.4626163 7.54408053,44.8136163 9.29508053,52.5846163 C11.6130805,62.8676163 11.8600805,70.3616163 11.2320805,77.2026163 C10.1700805,88.7726163 -3.42991947,112.521616 0.820080531,139.912616 C5.45208053,169.769616 21.9800805,181.782616 30.8820805,184.008616 C32.1890805,184.113616 34.2180805,182.861616 34.2460805,180.621616 C28.8050805,177.793616 22.1820805,173.186616 18.1880805,167.131616" id="Fill-39" fill="#FFB201" blush:i="0.1.0.0.0.0.1.3"/></g></g><g id="leg-1" transform="translate(342.000000, 275.000000)" blush:i="0.1.0.0.0.1"><path d="M172.272894,0.64634203 C160.189894,-5.70565797 80.3318936,36.853342 80.3318936,36.853342 C80.3318936,36.853342 72.5438936,46.534342 76.3778936,58.676342 C80.2118936,70.819342 95.0828936,78.535342 95.0828936,78.535342 L181.000894,58.343342 C181.000894,58.343342 184.355894,6.99834203 172.272894,0.64634203" id="Leg-1" fill="#09b9c6" blush:color="Skin-500" blush:i="0.1.0.0.0.1.0"/><g id="Shoe-1" transform="translate(0.000000, 24.507092)" blush:i="0.1.0.0.0.1.1"><path d="M57.8607936,0.462549602 C53.5027936,0.867549602 51.1607936,-1.4094504 45.9557936,10.8925496 C40.7507936,23.1945496 35.0807936,45.8735496 33.4537936,49.5745496 C26.6837936,64.9745496 11.0717936,82.6075496 7.75279358,97.7475496 C-5.53720642,158.36255 21.1297936,167.73455 24.5607936,165.72155 C35.3137936,159.40855 43.3687936,139.72855 52.0477936,130.41855 C68.7767936,112.47255 110.795794,56.4065496 111.741794,50.2555496 C97.3777936,46.1285496 90.4647936,35.9525496 90.4647936,26.4895496 C90.4647936,17.0255496 91.8867936,5.4485496 91.8867936,5.4485496 C91.8867936,5.4485496 70.2267936,-0.686450398 57.8607936,0.462549602" id="Fill-7" fill="#090E2B" blush:i="0.1.0.0.0.1.1.0"/><path d="M81.6302936,94.8199763 C80.8342936,94.8249496 80.1972936,94.1269496 80.2762936,93.3349496 C80.7042936,81.7999496 64.0422936,81.7889496 64.5952936,78.4769496 C65.1982936,75.3559496 84.3132936,79.1949496 83.1562936,92.9559496 C83.0982936,93.6599496 82.3212936,94.8199763 81.6302936,94.8199763" id="Fill-9" fill="#FFB201" blush:i="0.1.0.0.0.1.1.1"/><path d="M92.7328936,79.7340432 C92.1018936,79.7340432 91.5378936,79.2929496 91.4048936,78.6519496 C89.0558936,68.6639496 75.1488936,67.3439496 75.7438936,64.0829496 C76.6348936,61.1759496 93.5638936,67.2259496 94.0628936,78.0999496 C94.1018936,78.9509496 93.5808936,79.7439496 92.7328936,79.7340432" id="Fill-11" fill="#FFB201" blush:i="0.1.0.0.0.1.1.2"/><path d="M47.9749936,37.1256496 C50.3439936,24.7476496 56.3699936,3.5156496 57.8609936,0.462649602 C53.5019936,0.867649602 47.3599936,-3.5853504 42.1549936,8.7176496 C36.9509936,21.0196496 35.0799936,45.8736496 33.4539936,49.5746496 C26.6839936,64.9746496 8.30899358,85.1176496 4.03799358,100.01765 C0.0159935799,114.05065 -3.06100642,140.92265 5.29399358,157.55765 C10.9049936,168.72865 21.1299936,167.73465 24.5609936,165.72165 C25.8979936,164.93665 27.7429936,163.55965 29.0029936,162.40565 C27.9009936,162.93765 27.0129936,163.32765 25.5809936,163.73665 C17.7889936,165.96365 10.0789936,155.31865 7.85199358,136.02465 C5.62599358,116.73165 9.13999358,97.5286496 20.4579936,81.0826496 C26.9539936,71.6426496 45.6469936,49.2886496 47.9749936,37.1256496" id="Fill-36" fill="#FFB201" blush:i="0.1.0.0.0.1.1.3"/></g></g><g id="pant" transform="translate(463.000000, -1.000000)" blush:i="0.1.0.0.0.2"><path d="M49.9597,-5.68434189e-14 L125.5647,226.873 C125.5647,226.873 91.4667,447.709 91.4667,467.432 C84.8927,483.868 41.7407,591.756 36.8107,642.708 C63.1077,657.5 95.9807,673.937 95.9807,673.937 C95.9807,673.937 153.5077,568.745 196.2407,453.691 C238.9757,338.639 243.8197,330.28 249.1347,283.398 C268.8037,109.898 246.8947,98.213 221.5377,-5.68434189e-14 L49.9597,-5.68434189e-14 Z" id="pang-2" fill="#FFB201" blush:i="0.1.0.0.0.2.0"/><path d="M211.016811,29.4397032 C211.429324,29.4079849 211.794127,29.711998 211.831621,30.1245111 C219.478458,114.255877 202.534259,186.513315 148.752398,297.323586 C142.611823,312.570537 137.052735,329.774862 132.033924,348.619037 C125.112142,374.608311 119.556702,402.288541 115.014442,430.980071 L114.769972,432.537513 L114.391722,434.993387 L113.871202,438.447953 L113.339679,442.047692 L112.233769,449.717181 L110.313941,463.452804 L109.07746,472.516631 C107.87474,478.201746 106.266575,483.965096 104.225707,490.011243 L103.828156,491.177513 L103.215387,492.932294 L102.794911,494.108459 L102.364063,495.291857 L101.922154,496.484361 L101.23705,498.294282 L100.523195,500.135217 L100.030173,501.382857 L99.2632459,503.28952 L98.4613824,505.244043 L97.9062524,506.576766 L97.0410078,508.625092 L96.1346418,510.738123 L94.8581784,513.667067 L93.8468425,515.955641 L92.4220004,519.141571 L90.8433277,522.627127 L84.1838416,537.188945 L81.8957328,542.232473 L80.491969,545.358831 L78.8405171,549.079365 L77.5786657,551.96 L76.9609405,553.383655 L76.3488304,554.803605 C63.0597033,585.732824 54.1164916,613.917064 48.1874835,647.813624 C48.116115,648.221643 47.7274947,648.494552 47.3194759,648.423184 C46.911457,648.351815 46.6385479,647.963195 46.7099165,647.555176 C52.561555,614.100943 61.34004,586.185618 74.3076705,555.760689 L75.2768076,553.500093 L76.2194162,551.324338 L76.8798863,549.812362 L78.2387003,546.731498 L79.3019366,544.345514 L81.1859474,540.16052 L82.3988698,537.48884 L90.3086679,520.178056 L91.7741441,516.921087 L92.814206,514.584147 L93.8062259,512.330898 L94.4420238,510.872121 L95.3591097,508.744385 L95.9470917,507.363464 L96.5171457,506.010425 L97.3401101,504.029072 L97.8683405,502.737591 L98.3810399,501.467473 L99.1224664,499.598279 L99.5993343,498.373421 L100.063068,497.163407 L100.514353,495.966375 L101.169435,494.191093 L101.592592,493.018367 L102.005697,491.852103 L102.409435,490.690439 L102.804489,489.531513 C104.682881,483.966709 106.190208,478.648097 107.348757,473.412914 L107.612452,472.187554 L109.288942,459.909437 L110.749983,449.494624 L111.667935,443.113493 L112.216902,439.374319 L112.75741,435.763642 L113.151901,433.183125 L113.532894,430.745522 C118.082615,402.006861 123.647781,374.27817 130.584451,348.232995 C135.618075,329.3332 141.195613,312.071778 147.381968,296.71593 C201.074445,186.085745 217.95722,114.090244 210.337779,30.2602889 C210.300285,29.8477757 210.604298,29.4829729 211.016811,29.4397032 Z" id="Stroke-19" fill="#0023FF" fill-rule="nonzero" blush:i="0.1.0.0.0.2.1"/><path d="M50.283,5.68434189e-13 C50.283,5.68434189e-13 8.52651283e-14,49.862 8.52651283e-14,118.173 C8.52651283e-14,184.304 44.138,224.539 106.653,239.005 C72.064,255.882 53.535,266.376 32.631,276.441 C36.502,286.507 44.511,340.79 50.231,343.824 C55.952,346.857 187.088,331.624 232.591,317.254 C296.756,296.991 355.72,265.649 355.666037,201.151 C355.605,129.469 214.998,92.343 178.618,84.064 C165.178,75.104 155.228,5.68434189e-13 155.228,5.68434189e-13 L50.283,5.68434189e-13 Z" id="pant-1" fill="#FFB201" blush:i="0.1.0.0.0.2.2"/><path d="M154.9509,80.5361 C179.2369,83.5761 203.3279,88.6351 226.5629,96.3911 C233.0299,98.9091 243.8689,100.7881 249.8109,104.5831 C250.7579,105.1861 252.0579,106.4111 249.6979,105.5891 C229.4249,98.5191 205.5889,92.5851 184.6009,88.0071 C174.7349,85.8441 164.6389,83.8981 154.7319,81.9461 C153.8639,81.8021 154.0499,80.4061 154.9509,80.5361" id="Fill-24" fill="#000" blush:i="0.1.0.0.0.2.3"/><path d="M107.0974,238.3438 C136.4004,217.1588 180.6114,186.8568 217.1724,185.2278 C217.8354,185.2658 217.8174,186.3288 217.1144,186.2868 C197.3774,187.3458 176.7014,197.2948 159.6704,206.9458 C150.7974,212.1858 142.1054,217.7558 133.3494,223.2228 C124.6234,228.7398 115.8444,233.9908 106.7994,239.0388 C106.4794,239.2348 106.7614,238.5838 107.0974,238.3438" id="Fill-26" fill="#090E2B" blush:i="0.1.0.0.0.2.4"/><path d="M108.8689,339.1992 C146.7369,332.4082 189.5779,325.6052 227.1199,317.4832 C232.5399,316.3272 239.1659,314.8452 244.3659,312.9912 C244.6549,312.8612 245.1769,313.3162 243.8129,314.0092 C243.0179,314.4122 239.5329,315.6862 238.8119,315.9742 C218.8469,322.1942 198.1049,325.7712 177.5619,329.4462 C161.4129,332.2732 143.4889,334.8752 127.1619,337.1022 C121.5409,337.8052 114.9289,338.9572 109.2949,339.5712 C108.8679,339.6302 108.3929,339.2692 108.8689,339.1992" id="Fill-28" fill="#090E2B" blush:i="0.1.0.0.0.2.5"/><path d="M193.156,33.7119 C193.802,47.1629 193.246,62.1809 200.4,74.0399 C203.172,77.5789 207.927,78.8559 212.067,80.0239 C212.554,80.0659 212.509,80.8479 212.011,80.8179 C194.388,80.9779 192.963,61.1319 192.094,47.7709 C192.163,46.4119 191.023,30.4829 193.156,33.7119" id="Fill-30" fill="#0023FF" blush:i="0.1.0.0.0.2.6"/><path d="M67.2205,21.0088 C67.2985,20.8618 67.2765,20.7288 67.2085,20.6198 C72.3155,21.4048 77.3565,22.5958 82.3775,23.9278 C92.4055,26.2538 102.5685,27.9908 112.7825,29.3578 C111.8835,30.6038 110.6675,33.7918 110.2815,34.4118 C107.8905,39.6418 105.2965,45.4288 102.5595,50.4438 C89.3425,74.9698 72.8945,85.5958 45.7185,77.8218 C50.1555,62.2268 57.3365,43.5268 67.2205,21.0088 M239.5335,185.9398 C230.9725,161.6608 185.7965,162.1778 164.2605,160.4838 C62.8785,155.1268 25.6705,148.9458 45.5745,78.3278 C46.6655,78.7348 48.5425,79.5628 49.4175,79.8198 C85.9785,91.8408 102.3785,57.6088 113.7425,29.4918 C113.7425,29.4888 113.7415,29.4878 113.7415,29.4858 C121.4005,30.4908 129.0845,31.2968 136.7665,31.9548 C163.4465,34.1348 203.9595,39.1698 226.6795,23.0668 C227.4905,22.4508 226.3935,21.2698 225.7165,21.9178 C203.2235,37.9268 163.3145,33.0388 136.8415,30.9808 C118.6345,29.4928 100.3705,27.2478 82.5525,23.1878 C66.8595,18.3558 50.3635,17.4048 34.1405,19.2568 C32.8635,20.3318 38.3665,19.8748 40.2195,19.8258 C46.1245,19.5298 52.5625,19.3158 58.4425,19.7318 C61.1575,19.8488 63.8445,20.1328 66.5165,20.5238 C66.4895,20.5528 66.4605,20.5798 66.4415,20.6208 C63.8495,25.8218 61.4375,31.0938 59.1145,36.4108 C50.0335,57.7248 41.8935,79.8598 39.2625,103.0238 C33.6475,141.0808 63.4525,151.3998 94.8245,156.3968 C117.7855,159.9928 141.0045,160.9788 164.1575,162.3168 C180.7955,163.3178 199.6235,163.6438 215.4865,168.9448 C224.8725,172.2768 239.4585,178.1238 237.8925,190.2208 C234.0505,201.6398 219.7385,203.2718 209.4475,205.1948 C192.5195,209.5038 176.5595,216.7088 160.5425,223.4948 C118.2585,242.1818 76.4425,262.5768 35.4205,283.9088 C35.4415,283.9198 35.4425,283.9218 35.4515,283.9278 C35.4565,283.9338 35.4585,283.9378 35.4635,283.9438 C35.3895,283.9388 34.7985,283.7678 35.7225,284.7518 C35.7735,284.7368 35.8095,284.7088 35.8465,284.6838 C35.7865,284.6548 35.7405,284.5998 35.8735,284.6528 C35.8835,284.6478 35.8935,284.6428 35.9035,284.6368 C35.9085,284.6308 35.9115,284.6238 35.9165,284.6178 C35.9175,284.6208 35.9195,284.6258 35.9205,284.6288 C76.9475,263.4728 118.7995,243.2188 161.0685,224.7048 C177.0145,218.0088 192.9815,210.8668 209.7735,206.6458 C221.3545,204.7848 240.9495,201.3678 239.5335,185.9398" id="Fill-32" fill="#0023FF" blush:i="0.1.0.0.0.2.7"/></g></g></g><g id="Upper Body/Standing" transform="translate(69.000000, -172.000000) scale(1 1)" blush:width="906" blush:height="1041" blush:component="Upper Body/Standing" blush:i="0.1.0.1" blush:value="With Book 1" blush:viewBox="231.70689655172418 239.43000000000006 536.310344827586 796.3649999999999"><g id="Upper Body/Standing/With Book 1" stroke="none" stroke-width="1" fill="none" fill-rule="evenodd" blush:viewBox="231.70689655172418 239.43000000000006 536.310344827586 796.3649999999999" blush:i="0.1.0.1.0"><path d="M717.692691,297.626781 C716.046534,284.918996 712.272887,271.468531 714.335328,270.508579 C716.39777,269.548627 723.143691,270.617781 725.235691,279.080781 C737.240452,251.768132 741.069128,239.203899 751.374174,244.125662 C758.048097,247.313175 767.993487,260.599909 768.082721,267.294974 C768.462682,295.802949 746.86593,302.277821 744.81693,316.257821 C742.24893,333.779821 740.290011,402.636586 740.290011,402.636586 C740.290011,402.636586 666.465768,419.92837 674.592768,388.07037 C695.284699,351.056805 718.908768,307.01449 717.692691,297.626781 Z" id="Fill-1" fill="#09b9c6" transform="translate(721.027755, 325.200195) rotate(-4.000000) translate(-721.027755, -325.200195)" blush:color="Skin-500" blush:i="0.1.0.1.0.0"/><path d="M445.228269,414 C445.228269,414 443.813454,448.996697 442.997138,460.642639 C442.320705,470.276909 436,499.534954 436,499.534954 C436,499.534954 456.121143,522.728049 487.811593,512.308469 C506.630826,506.120783 490.684186,494.656451 490.852046,483.164179 C491.199754,459.314497 491.55146,430.910613 491.55146,430.910613 L445.228269,414 Z" id="Fill-4" fill="#09b9c6" blush:color="Skin-500" blush:i="0.1.0.1.0.1"/><path d="M449.994623,497 C449.994623,497 462.990811,505.736993 474.685985,509.061087 C487.718063,512.764965 495.189177,501.417468 496.530069,499.468585 C499.522901,512.829927 559.560984,832.6996 551.202589,846.905459 C528.012627,863.16414 428.001994,887.838998 428,867.030924 L449.994623,497 Z" id="Fill-6" fill="#FFF" blush:i="0.1.0.1.0.2"/><path d="M438.251949,469 C438.251949,469 475.126101,504.070546 474.624827,529.455866 C474.122553,554.842187 520.739029,886.627486 471.118911,898.375038 C453.693388,902.50069 373.890776,917.422283 353.480621,902.534712 C333.072468,887.647141 348.75704,782.504547 348.75704,782.504547 C348.75704,782.504547 393.332401,512.108714 438.251949,469" id="Fill-8" fill="#FF00A4" blush:i="0.1.0.1.0.3"/><path d="M633.93047,484.146278 C654.060301,460.80462 666.726552,362.683037 694.939734,367.147605 C754.592889,376.587362 770.011992,414.188563 763.680042,449.142405 C756.017646,491.440612 703.914489,552.171604 680.653504,566.920184 C657.236307,581.767811 556.037383,621.363461 543.649607,609.968694 C500.586908,570.3566 490.862543,490.024388 502.589278,484.146278 C546.417459,481.981383 614.983787,506.116011 633.93047,484.146278 Z" id="Fill-10" fill="#FF00A4" blush:i="0.1.0.1.0.4"/><path d="M510.747674,499.619061 C516.263568,505.960939 562.288218,585.984789 563.636837,615.83951 C566.108303,670.568832 578.00104,796.18862 605.596564,850.096088 C611.58307,861.79002 597.410524,871.053382 582.147242,879.536882 C533.162452,906.766067 547.018915,865.817308 538.056215,792.147334 C525.447024,688.516659 497.807349,536.376561 498,521.491193 C498.195679,506.604825 505.23178,493.278182 510.747674,499.619061" id="Fill-12" fill="#FF00A4" blush:i="0.1.0.1.0.5"/><path d="M435.998772,884.430315 L436.925515,879.907863 C437.257422,878.290768 435.911796,876.822049 434.276251,877.017544 L258.253188,898.071859 C257.197481,898.198179 256.349717,899.002215 256.162769,900.05087 L234.031922,1024.67545 C233.85897,1025.64691 234.402819,1026.60333 235.323563,1026.95222 L248.683848,1032 L425.880585,1020.59612 C426.80033,1020.53697 427.566117,1019.86828 427.752065,1018.96299 L454.933508,886.380253 C455.369387,884.253868 453.599879,882.323981 451.451476,882.581633 L435.998772,884.430315 Z" id="Fill-14" fill="#0067D3" blush:i="0.1.0.1.0.6"/><path d="M290,882.03569 C290,882.03569 309.05376,965.172983 307.039752,980.592729 C305.02474,996.012475 297.378337,1029.65319 313.273538,1031.9842 C341.40439,1036.10983 351.952329,1026.33564 351.952329,1026.33564 C351.952329,1026.33564 352.782631,1029.12583 357.075701,1029.5409 C362.061525,1030.02214 370.086433,1029.49578 363.533377,1024.12093 C357.336738,1019.03582 355.430158,999.84736 345.270763,989.785424 C334.386486,979.005638 356.903014,901.003581 356.149016,876.59667 C355.394014,852.190762 290,882.03569 290,882.03569" id="Fill-16" fill="#09b9c6" blush:color="Skin-500" blush:i="0.1.0.1.0.7"/><path d="M424.191493,480 C424.191493,480 374.490599,498.040285 350.490254,532.11749 C331.962441,558.425405 305.76767,646.18917 298.050588,682.439855 C280.774871,763.591117 205.59698,838.894396 274.701854,891.085937 C294.38753,905.953061 387.981958,948.820252 390.437029,808.431652 C391.278109,760.348909 403.618623,660.414857 414.084501,612.092951 C419.740487,585.980169 443,509.201886 443,509.201886 L424.191493,480 Z" id="Fill-19" fill="#FF00A4" blush:i="0.1.0.1.0.8"/><path d="M442.106664,466 C442.106664,466 466.875632,483.544958 472.298659,499.042399 C476.993976,512.462096 479.053832,525.819318 474.292901,530 C431.792474,527.50207 420,481.507518 420,481.507518 L442.106664,466 Z" id="Fill-21" fill="#FFB201" blush:i="0.1.0.1.0.9"/><path d="M490.592596,470 C490.592596,470 505.67572,479.976837 508.828413,487.211607 C509.873429,489.610296 506.194307,522.082405 496.439194,523.955109 C490.400454,525.11426 489.186825,503.520109 489.012329,494.495999 C488.836852,485.470896 490.592596,470 490.592596,470" id="Fill-23" fill="#FFB201" blush:i="0.1.0.1.0.10"/><path d="M373.234113,881.818622 C384.157825,864.088229 386.994097,844.892969 387.854911,824.635805 C388.345515,804.408638 388.716729,782.413632 389.925681,762.338451 C392.379704,720.844213 398.169632,679.422967 406.878102,638.798649 C410.818985,618.667474 417.25302,598.447307 418.665638,577.859173 C419.379973,567.451116 416.985144,557.775993 417.399498,557.047059 C417.910168,556.150141 420,568.255043 420,577.906169 C420,595.197601 414.818059,612.31105 411.547367,629.162523 C405.275864,659.598764 400.657766,690.447968 397.247618,721.299171 C393.489331,755.383082 391.606175,790.391909 390.236698,824.727796 C388.939457,845.308931 385.014626,867.076958 372.096393,883.908432 C371.671003,884.458382 372.763574,882.374571 373.234113,881.818622" id="Fill-25" fill="#090E2B" blush:i="0.1.0.1.0.11"/><path d="M538.178729,541.661551 C552.0815,561.618693 560.84819,584.134623 562.984132,608.55814 C563.043054,609.14332 562.928155,610.44272 562.799508,609.847537 C558.865447,592.108077 553.011494,574.593687 545.457626,558.108613 C542.956364,552.620924 538.474324,543.676171 537.362652,541.908627 C536.251963,540.141083 538.033387,541.461489 538.178729,541.661551" id="Fill-27" fill="#090E2B" blush:i="0.1.0.1.0.12"/><polygon id="Fill-29" fill="#E9EFFF" points="412 1015 421.378388 1015 447 883.03864 436.476485 882" blush:i="0.1.0.1.0.13"/></g></g><g id="Head" transform="translate(399.000000, 26.000000) scale(1 1)" blush:width="300" blush:height="300" blush:component="Head" blush:i="0.1.0.2" blush:value="Curls Gray" blush:viewBox="0 55.5 262.50000000000006 264"><g id="Head/Curls Gray" stroke="none" stroke-width="1" fill="none" fill-rule="evenodd" blush:viewBox="0 55.5 262.50000000000006 264" blush:i="0.1.0.2.0"><path d="M209.1303,107.5764 C209.1303,107.5764 211.1113,98.2314 225.6773,99.2914 C249.2283,101.0044 253.4783,123.9904 248.0753,146.5114 C244.2703,162.3754 239.1843,174.8744 240.7863,183.6624 C243.8583,200.4974 252.5503,201.2874 259.2603,219.7534 C269.9143,249.0734 243.1013,251.2114 242.8423,256.4734 C241.5893,281.9704 233.2363,293.7004 218.5563,299.2784 C196.9123,307.5034 174.1923,296.7264 162.7063,276.6714 C153.0903,259.8794 162.7063,241.4594 162.7063,241.4594 L215.4033,190.6814 L209.1303,107.5764 Z" id="Fill-1" fill="#E3E4E6" blush:i="0.1.0.2.0.0"/><path d="M205.767,97.1399 C205.767,97.1399 221.196,104.7289 228.478,125.9879 C232.573,137.9419 231.011,152.6219 233.289,173.3079 C238.947,224.6639 223.805,264.7349 195.664,263.7749 C162.246,262.6339 133.329,242.6749 117.287,231.0709 C101.244,219.4649 98.301,204.9709 98.138,182.0229 C97.976,159.0749 98.811,109.7529 113.625,108.3019 C128.44,106.8519 175.746,74.3719 205.767,97.1399" id="Fill-4" fill="#09b9c6" blush:color="Skin-500" blush:i="0.1.0.2.0.1"/><path d="M107.0614,192.6107 C107.0854,200.5017 138.5724,221.4117 121.8314,250.8917 C133.1984,262.7107 129.9914,309.2527 81.1124,302.6407 C59.6644,331.3287 14.1904,319.5797 19.4464,288.8517 C6.0124,286.2407 -0.5626,264.2947 1.3144,251.8917 C6.1784,219.7527 36.7984,215.7527 36.7984,215.7527 C32.9554,178.8287 66.6264,187.5857 61.9484,162.1677 C57.3234,137.0357 62.3714,102.1827 88.8184,98.0927 C92.4274,61.9707 139.0684,45.6877 171.8234,62.8627 C179.5574,55.7807 232.3524,47.4767 231.2474,95.8587 C230.8724,112.2877 218.1174,134.2907 199.5354,138.0467 C186.4244,140.6987 163.1734,136.0767 155.2004,145.8617 C144.2934,159.2467 142.4374,162.5327 125.8774,170.9817 C119.4584,174.2557 114.9164,170.9817 114.9164,170.9817 C114.9164,170.9817 107.0014,173.2507 107.0614,192.6107 Z" id="Fill-6" fill="#E3E4E6" blush:i="0.1.0.2.0.2"/><path d="M114.6781,200.632 C107.5681,204.795 97.8471,199.587 92.2141,195.791 C80.0061,187.565 80.4821,174.231 90.2831,167.039 C97.4451,161.785 107.4351,162.844 116.5011,170.503 C124.3141,177.104 122.7091,195.929 114.6781,200.632" id="Fill-9" fill="#09b9c6" blush:color="Skin-500" blush:i="0.1.0.2.0.3"/><path d="M96.016,174.1125 C101.095,173.1825 106.796,173.8515 110.409,179.1885 C112.059,181.6275 112.088,184.4065 112.941,187.2005 C113.034,187.5055 112.054,188.2285 110.665,184.8685 C108.859,180.5015 105.591,177.7485 102.748,176.5525 C99.045,174.9965 94.592,176.0475 93.924,175.3995 C93.228,174.7245 95.448,174.2165 96.016,174.1125" id="Fill-11" fill="#000" blush:i="0.1.0.2.0.4"/><path d="M109.8988,183.5432 C107.3298,182.2192 102.4328,184.5862 102.2328,184.0792 C101.6118,182.5102 108.2128,179.7712 110.3798,181.5362 C111.9708,182.8322 111.7248,184.4842 109.8988,183.5432" id="Fill-13" fill="#000" blush:i="0.1.0.2.0.5"/><path d="M133.434,241.6965 C134.317,242.0805 139.01,244.7875 141.079,245.8885 C144.872,247.9095 148.686,249.9045 152.55,251.7265 C154.541,252.6705 159.332,254.3425 158.687,254.9035 C157.447,255.9795 146.676,251.9555 139.861,247.4625 C136.238,245.0745 131.925,241.0425 133.434,241.6965" id="Fill-15" fill="#090E2B" blush:i="0.1.0.2.0.6"/></g></g><g id="Expressions" transform="translate(520.000000, 159.000000) scale(1 1)" blush:width="120" blush:height="120" blush:component="Expressions" blush:i="0.1.0.3" blush:value="Relaxed" blush:viewBox="22.799999999999997 15.599999999999994 85.80000000000001 91.80000000000001"><g id="Expressions/Relaxed" stroke="none" stroke-width="1" fill="none" fill-rule="evenodd" blush:viewBox="22.799999999999997 15.599999999999994 85.80000000000001 91.80000000000001" blush:i="0.1.0.3.0"><path d="M93.917,85.9779 C78.288,85.3499 67.34,84.9099 56.819,84.4879 C53.549,84.3559 50.673,90.0739 56.294,97.5689 C64.259,108.1889 84.891,111.8759 93.281,99.0539 C97.555,92.5239 97.31,86.1149 93.917,85.9779" id="Fill-1" fill="#FFF" blush:i="0.1.0.3.0.0"/><path d="M82.7872,55.7084 C86.8282,59.4834 96.9612,74.6464 87.8282,76.8394 C85.9422,77.2914 77.3212,77.5114 78.5922,75.6374 C79.6052,74.1434 85.9772,75.0244 86.8982,72.1854 C88.1082,68.4554 83.7122,61.1524 80.9722,56.1434 C80.5012,55.2804 82.1522,54.9674 82.7872,55.7084" id="nose" fill="#090E2B" blush:i="0.1.0.3.0.1"/><path d="M63.2787643,47.5005595 C63.8977643,55.1465595 54.2727643,60.0135595 46.1077643,56.1935595 C41.9017643,54.2275595 39.7587643,51.2665595 40.7837643,50.0295595 C41.4397643,49.2375595 43.3107643,50.3635595 43.9337643,50.7335595 C52.2097643,55.6545595 58.7657643,51.2125595 60.7667643,46.8055595 C61.5487643,45.0855595 63.0797643,45.0435595 63.2787643,47.5005595 Z M104.514164,42.1987595 C103.866164,45.3027595 102.660164,46.8727595 101.140164,47.9767595 C96.7091643,51.1937595 89.4801643,47.9737595 88.0981643,45.0087595 C87.0641643,42.7917595 88.5051643,42.7377595 90.1931643,43.7887595 C92.8701643,45.4587595 95.4171643,45.8007595 97.1021643,45.4817595 C100.340164,44.8707595 101.879164,41.6127595 103.045164,40.2707595 C103.679164,39.5417595 105.019164,39.7827595 104.514164,42.1987595 Z" id="eye" fill="#090E2B" transform="translate(72.577838, 48.716394) rotate(3.000000) translate(-72.577838, -48.716394)" blush:i="0.1.0.3.0.2"/><path d="M62.79355,24.2519929 C66.09155,27.4989929 65.39755,33.0019929 61.13355,31.9079929 C49.32655,25.7259929 38.64055,24.0389929 28.38555,32.9259929 C24.70055,36.1199929 22.78655,33.4669929 23.96555,30.1789929 C24.80555,27.8369929 28.41655,23.5259929 31.44155,21.8919929 C41.35255,16.5349929 55.59955,17.1699929 62.79355,24.2519929 Z M106.56795,16.9292929 C108.41995,18.3412929 109.65195,21.1502929 106.65095,21.9192929 C105.57695,22.1952929 94.27495,18.5422929 86.72495,27.4442929 C85.02995,29.4432929 81.19395,28.9722929 81.57395,25.6042929 C82.55195,16.9622929 97.18895,9.78229286 106.56795,16.9292929 Z" id="eybrow" fill="#090E2B" transform="translate(66.040205, 24.189369) rotate(3.000000) translate(-66.040205, -24.189369)" blush:i="0.1.0.3.0.3"/></g></g><g id="Facial Accesories" transform="translate(517.000000, 209.000000) scale(1 1)" fill="#000" blush:width="120" blush:height="110" blush:component="Facial Accesories" blush:i="0.1.0.4" blush:value="None" blush:viewBox="210 192.5 0 0"><g id="Facial Accesories/None" stroke="none" stroke-width="1" fill="none" fill-rule="evenodd" fill-opacity="0" blush:viewBox="210 192.5 0 0" blush:i="0.1.0.4.0"/></g><g id="Glass" transform="translate(520.000000, 164.000000) scale(1 1)" fill="#000" blush:width="120" blush:height="75" blush:component="Glass" blush:i="0.1.0.5" blush:value="None" blush:viewBox="210 131.25 0 0"><g id="Glass/None" stroke="none" stroke-width="1" fill="none" fill-rule="evenodd" fill-opacity="0" blush:viewBox="210 131.25 0 0" blush:i="0.1.0.5.0"/></g></g></g></g></svg>